<svg xmlns="http://www.w3.org/2000/svg" viewBox="0 0 512 512">
  <rect width="512" height="512" rx="80" fill="#17121f"/>
  <rect x="40" y="40" width="130" height="130" rx="10" fill="#3c3150"/>
  <rect x="191" y="40" width="130" height="130" rx="10" fill="#3c3150"/>
  <rect x="342" y="40" width="130" height="130" rx="10" fill="#5c4b73"/>
  <rect x="40" y="191" width="130" height="130" rx="10" fill="#3c3150"/>
  <rect x="191" y="191" width="130" height="130" rx="10" fill="#3c3150"/>
  <rect x="342" y="191" width="130" height="130" rx="10" fill="#3c3150"/>
  <rect x="40" y="342" width="130" height="130" rx="10" fill="#5c4b73"/>
  <rect x="191" y="342" width="130" height="130" rx="10" fill="#3c3150"/>
  <rect x="342" y="342" width="130" height="130" rx="10" fill="#3c3150"/>
  <circle cx="407" cy="105" r="38" fill="#ffd166" opacity="0.9"/>
  <circle cx="105" cy="407" r="38" fill="#ffd166" opacity="0.9"/>
  <rect x="197" y="197" width="118" height="118" rx="10" fill="#c98f52"/>
  <rect x="197" y="197" width="118" height="26" rx="10" fill="#efbb77"/>
  <line x1="256" y1="197" x2="256" y2="315" stroke="#8c5a2d" stroke-width="4"/>
  <line x1="197" y1="256" x2="315" y2="256" stroke="#8c5a2d" stroke-width="4"/>
  <rect x="56" y="56" width="98" height="98" rx="49" fill="#7ee081"/>
  <rect x="76" y="56" width="58" height="55" rx="29" fill="#c9ffc7"/>
  <text x="256" y="490" font-family="monospace" font-size="40" fill="#8be9fd" text-anchor="middle" font-weight="bold">SOKOBAN</text>
</svg>
